<mxfile host="app.diagrams.net" modified="2023-09-19T02:40:00.514Z" agent="Mozilla/5.0 (Windows NT 10.0; Win64; x64) AppleWebKit/537.36 (KHTML, like Gecko) Chrome/116.0.0.0 Safari/537.36" etag="u6Ov6vDoKkFWkqplfeNr" version="21.7.5" type="github">
  <diagram name="Page-1" id="dq5HCTdFB2sLgBmc9vmV">
    <mxGraphModel dx="880" dy="470" grid="1" gridSize="10" guides="1" tooltips="1" connect="1" arrows="1" fold="1" page="1" pageScale="1" pageWidth="850" pageHeight="1100" math="0" shadow="0">
      <root>
        <mxCell id="0" />
        <mxCell id="1" parent="0" />
        <mxCell id="P2zZoZJRl93ertxy_8j1-1" value="anggota" style="shape=umlActor;verticalLabelPosition=bottom;verticalAlign=top;html=1;outlineConnect=0;" vertex="1" parent="1">
          <mxGeometry x="120" y="350" width="90" height="200" as="geometry" />
        </mxCell>
        <mxCell id="P2zZoZJRl93ertxy_8j1-5" value="perpustakaan" style="shape=umlActor;verticalLabelPosition=bottom;verticalAlign=top;html=1;outlineConnect=0;" vertex="1" parent="1">
          <mxGeometry x="600" y="350" width="90" height="200" as="geometry" />
        </mxCell>
        <mxCell id="P2zZoZJRl93ertxy_8j1-7" value="" style="rounded=0;whiteSpace=wrap;html=1;" vertex="1" parent="1">
          <mxGeometry x="300" y="240" width="250" height="390" as="geometry" />
        </mxCell>
        <mxCell id="P2zZoZJRl93ertxy_8j1-10" value="Perpus Digital" style="text;html=1;strokeColor=none;fillColor=none;align=center;verticalAlign=middle;whiteSpace=wrap;rounded=0;" vertex="1" parent="1">
          <mxGeometry x="370" y="250" width="110" height="30" as="geometry" />
        </mxCell>
        <mxCell id="P2zZoZJRl93ertxy_8j1-11" value="mengisi buku catatan" style="ellipse;whiteSpace=wrap;html=1;" vertex="1" parent="1">
          <mxGeometry x="355" y="320" width="140" height="50" as="geometry" />
        </mxCell>
        <mxCell id="P2zZoZJRl93ertxy_8j1-12" value="baca buku pengunjung" style="ellipse;whiteSpace=wrap;html=1;" vertex="1" parent="1">
          <mxGeometry x="355" y="410" width="140" height="50" as="geometry" />
        </mxCell>
        <mxCell id="P2zZoZJRl93ertxy_8j1-14" value="rekapan buku catatan" style="ellipse;whiteSpace=wrap;html=1;" vertex="1" parent="1">
          <mxGeometry x="355" y="510" width="140" height="50" as="geometry" />
        </mxCell>
        <mxCell id="P2zZoZJRl93ertxy_8j1-18" value="" style="endArrow=none;html=1;rounded=0;" edge="1" parent="1" source="P2zZoZJRl93ertxy_8j1-1" target="P2zZoZJRl93ertxy_8j1-11">
          <mxGeometry width="50" height="50" relative="1" as="geometry">
            <mxPoint x="250" y="450" as="sourcePoint" />
            <mxPoint x="300" y="400" as="targetPoint" />
          </mxGeometry>
        </mxCell>
        <mxCell id="P2zZoZJRl93ertxy_8j1-19" value="" style="endArrow=none;html=1;rounded=0;exitX=1;exitY=0.5;exitDx=0;exitDy=0;" edge="1" parent="1" source="P2zZoZJRl93ertxy_8j1-12" target="P2zZoZJRl93ertxy_8j1-5">
          <mxGeometry width="50" height="50" relative="1" as="geometry">
            <mxPoint x="495" y="439.2038461538462" as="sourcePoint" />
            <mxPoint x="640.8958191623808" y="430.78677966370884" as="targetPoint" />
          </mxGeometry>
        </mxCell>
        <mxCell id="P2zZoZJRl93ertxy_8j1-20" value="" style="endArrow=none;html=1;rounded=0;" edge="1" parent="1" source="P2zZoZJRl93ertxy_8j1-14" target="P2zZoZJRl93ertxy_8j1-5">
          <mxGeometry width="50" height="50" relative="1" as="geometry">
            <mxPoint x="540" y="460" as="sourcePoint" />
            <mxPoint x="590" y="410" as="targetPoint" />
          </mxGeometry>
        </mxCell>
      </root>
    </mxGraphModel>
  </diagram>
</mxfile>
